<svg xmlns="http://www.w3.org/2000/svg" width="757.967" height="633.472" viewBox="0 0 757.967 633.472">
  <g id="Group_112" data-name="Group 112" transform="translate(-63.913 -110.122)">
    <g id="Arrow_1" data-name="Arrow 1" transform="translate(63.913 367.32)">
      <g id="Group_89" data-name="Group 89">
        <g id="Group_88" data-name="Group 88" transform="translate(48.388)">
          <path id="Path_135" data-name="Path 135" d="M412.727,235.139l3.463,4.287L87.422,501.3l14,17.336,1.922,2.38L432.115,259.142l3.463,4.287,6.159-28.348Z" transform="translate(-87.422 -235.081)" fill="#407bff"/>
          <path id="Path_136" data-name="Path 136" d="M412.727,235.139l3.463,4.287L87.422,501.3l14,17.336,1.922,2.38L432.115,259.142l3.463,4.287,6.159-28.348Z" transform="translate(-87.422 -235.081)" fill="#ee7843"/>
        </g>
        <path id="Path_137" data-name="Path 137" d="M63.913,396.891a10.819,10.819,0,0,1,13.93-10.365A23.269,23.269,0,0,1,77.6,383.2a22.908,22.908,0,0,1,27.144-22.526,20.031,20.031,0,0,1,37.148,10.127c.113,0,.222-.017.333-.017a18.464,18.464,0,1,1,0,36.927H74.418l.012-.014A10.816,10.816,0,0,1,63.913,396.891Z" transform="translate(-63.913 -112.356)" fill="#407bff"/>
        <path id="Path_138" data-name="Path 138" d="M63.913,396.891a10.819,10.819,0,0,1,13.93-10.365A23.269,23.269,0,0,1,77.6,383.2a22.908,22.908,0,0,1,27.144-22.526,20.031,20.031,0,0,1,37.148,10.127c.113,0,.222-.017.333-.017a18.464,18.464,0,1,1,0,36.927H74.418l.012-.014A10.816,10.816,0,0,1,63.913,396.891Z" transform="translate(-63.913 -112.356)" fill="#fff" opacity="0.8"/>
      </g>
    </g>
    <g id="Arrow_3" data-name="Arrow 3" transform="translate(568.191 533.139)">
      <g id="Group_91" data-name="Group 91">
        <g id="Group_90" data-name="Group 90" transform="translate(40.298)">
          <path id="Path_139" data-name="Path 139" d="M473.1,315.781l8.212,10.165L328.494,449.39,361.7,490.5l4.557,5.643L519.071,372.694l8.212,10.165,14.6-67.215Z" transform="translate(-328.494 -315.644)" fill="#407bff"/>
          <path id="Path_140" data-name="Path 140" d="M473.1,315.781l8.212,10.165L328.494,449.39,361.7,490.5l4.557,5.643L519.071,372.694l8.212,10.165,14.6-67.215Z" transform="translate(-328.494 -315.644)" fill="#ee7843"/>
        </g>
        <path id="Path_141" data-name="Path 141" d="M411.2,386.9a34.8,34.8,0,0,0-59.389.5,18.636,18.636,0,0,0-23.717,17.979l0,.023h-9.851a9.33,9.33,0,1,0,0,18.66h33.994a34.817,34.817,0,0,0,54.324,5.708c.589.049,1.179.09,1.78.09A21.572,21.572,0,0,0,411.2,386.9Z" transform="translate(-308.915 -257.596)" fill="#407bff"/>
        <path id="Path_142" data-name="Path 142" d="M411.2,386.9a34.8,34.8,0,0,0-59.389.5,18.636,18.636,0,0,0-23.717,17.979l0,.023h-9.851a9.33,9.33,0,1,0,0,18.66h33.994a34.817,34.817,0,0,0,54.324,5.708c.589.049,1.179.09,1.78.09A21.572,21.572,0,0,0,411.2,386.9Z" transform="translate(-308.915 -257.596)" fill="#fff" opacity="0.8"/>
      </g>
    </g>
    <g id="Character_1" data-name="Character 1" transform="translate(202.018 239.725)">
      <g id="Group_103" data-name="Group 103">
        <path id="Path_143" data-name="Path 143" d="M255.125,177.7l-2.968-3.127a3.405,3.405,0,0,0-3.108-1l-4.44.852a3.4,3.4,0,0,0-2.735,2.929l-2.276,18.6,6.889,2.641c8.383-3.647,7.949-14.723,7.949-14.723l1.206-2.206A3.4,3.4,0,0,0,255.125,177.7Z" transform="translate(-16.099 -172.636)" fill="#ffb573"/>
        <path id="Path_144" data-name="Path 144" d="M207.612,223.217s6.593.4,10.46.3c3.9-.054,7.78-.126,11.594-.344,3.8-.243,7.574-.51,11.038-.99a39.688,39.688,0,0,0,4.7-.908c.613-.175,1.208-.364,1.482-.475.445-.2-.047.154.2.014a31.984,31.984,0,0,0,2.987-3.415c1.128-1.435,2.264-2.976,3.386-4.547,2.26-3.149,4.5-6.422,6.737-9.713L273.641,183.2l10.505,5.592c-1.544,3.843-3.219,7.546-4.9,11.294q-2.606,5.56-5.333,11.1c-1.854,3.68-3.779,7.34-5.872,11.006-1.06,1.832-2.151,3.666-3.349,5.539a41.082,41.082,0,0,1-4.561,6.062,18.636,18.636,0,0,1-4.685,3.552,31.132,31.132,0,0,1-4.117,1.834,56.543,56.543,0,0,1-7.07,1.992,105.109,105.109,0,0,1-13.023,2,205.082,205.082,0,0,1-25.259.971Z" transform="translate(-51.672 -162.394)" fill="#407bff"/>
        <path id="Path_145" data-name="Path 145" d="M284.136,188.8c-1.544,3.828-3.211,7.533-4.878,11.279-1.75,3.7-3.52,7.41-5.351,11.115-1.852,3.664-3.767,7.327-5.866,10.991-1.05,1.832-2.141,3.664-3.355,5.537a40.593,40.593,0,0,1-4.549,6.072,18.774,18.774,0,0,1-4.693,3.54,29.964,29.964,0,0,1-4.117,1.852,56.172,56.172,0,0,1-7.06,1.976,104.427,104.427,0,0,1-13.029,2.017c-1.832.185-3.643.329-5.434.473-6.607.473-13.111.638-19.821.494l.329-4.322,1.3-16.61s6.586.412,10.456.309c3.911-.062,7.78-.124,11.609-.35,3.787-.226,7.574-.494,11.032-.988a35.256,35.256,0,0,0,4.693-.906,11.681,11.681,0,0,0,1.482-.473c.453-.206-.041.165.206.021a33.454,33.454,0,0,0,2.984-3.417c1.132-1.441,2.264-2.984,3.376-4.549,2.264-3.149,4.508-6.422,6.751-9.715l13.44-19.945Z" transform="translate(-51.67 -162.393)" fill="#fff" opacity="0.7"/>
        <path id="Path_146" data-name="Path 146" d="M225.805,216.483c-6.607.473-13.111.638-19.821.494l.329-4.322,1.605-3.787S218.7,208.723,225.805,216.483Z" transform="translate(-51.67 -135.228)" opacity="0.1"/>
        <path id="Path_147" data-name="Path 147" d="M176.867,395.176s-18.633-12.819-17.489-21.431a1.483,1.483,0,0,0-1.278-1.729l-15.8-2.388a2.079,2.079,0,0,0-1.961.836l-9.332,13.078,4.193,1.517,2.25-1.579,1.06,2.775c22.754,8.233,32.673,11.547,37.691,11.759C177.585,396.24,176.867,395.176,176.867,395.176Z" transform="translate(-131.011 34.878)"/>
        <g id="Group_92" data-name="Group 92" transform="translate(8.527 167.023)">
          <path id="Path_148" data-name="Path 148" d="M277.421,275.149s-.947,2.47-2.614,6.751c-1.791,4.631-4.425,11.382-7.6,19.409-2.12,5.352-4.466,11.279-7,17.516-11.629,28.9-26.654,64.65-36.6,82.7-19.039,34.538-68.643,100.134-68.643,100.134l-19.821-7.245s35.69-67.552,53.7-101.781c5.5-10.435,11.814-25.79,18.072-42.544,2.984-7.965,5.948-16.26,8.809-24.473,1.3-3.7,2.573-7.41,3.808-11.053,3.273-9.633,6.339-18.915,9.036-27.19.329-1.029.659-2.058.988-3.046,1.091-3.4,2.12-6.607,3.046-9.571,3.87-12.185,6.278-20.212,6.36-20.521h.021l17.68,9.633Z" transform="translate(-135.154 -254.237)" fill="#263238"/>
        </g>
        <path id="Path_149" data-name="Path 149" d="M233.376,271.349c-1.791,4.631-4.425,11.382-7.6,19.409-2.12,5.351-4.466,11.279-7,17.516-16.178,3.252-32.644,5.454-44.479,6.792,1.3-3.7,2.573-7.41,3.808-11.053,3.273-9.633,6.339-18.915,9.036-27.19.329-1.029.659-2.058.988-3.046,1.091-3.4,2.12-6.607,3.046-9.571C203.078,265.833,218.989,268.262,233.376,271.349Z" transform="translate(-85.196 -76.663)" opacity="0.3"/>
        <g id="Group_93" data-name="Group 93" transform="translate(87.441 60.322)">
          <path id="Path_150" data-name="Path 150" d="M173.5,213.856c0,.016.012.031.012.047,2.853,9.575,4.526,20.7,5.461,31.672.718,8.534.994,16.937,1.029,24.475.029,7.595-.2,14.317-.447,19.465-.331,6.611-.722,10.684-.722,10.684l62.538,3.213c18.763-68,.617-100.515.617-100.515a129.545,129.545,0,0,0-16.769-.387c-1.157.037-2.332.126-3.536.218-7.646.64-19.833,3.057-27.968,4.895-1.677.368-3.361.8-5.008,1.249C180.54,211.1,173.5,213.856,173.5,213.856Z" transform="translate(-173.489 -202.397)" fill="#407bff"/>
          <path id="Path_151" data-name="Path 151" d="M241.375,303.414l-62.53-3.211s.391-4.075.72-10.7c.082-1.935.165-4.137.247-6.525.124-3.849.206-8.212.206-12.926-.021-2.285-.062-4.652-.123-7.08,0-.391-.021-.782-.021-1.173-.1-3.849-.288-7.842-.556-11.9-.124-1.441-.226-2.882-.35-4.322-.082-1.132-.185-2.285-.288-3.417-.309-2.882-.638-5.763-1.05-8.6-.1-.782-.226-1.564-.35-2.326-.185-1.3-.391-2.552-.617-3.828a128.892,128.892,0,0,0-3.129-13.523.072.072,0,0,0-.041-.021s7.06-2.758,15.231-5c1.626-.432,3.314-.864,4.981-1.235,8.151-1.832,20.336-4.261,27.972-4.9,1.214-.082,2.388-.185,3.561-.206a129.155,129.155,0,0,1,16.754.37S260.147,235.389,241.375,303.414Z" transform="translate(-173.494 -202.394)" fill="#fff" opacity="0.7"/>
        </g>
        <path id="Path_152" data-name="Path 152" d="M248.46,344.7s-17.868-13.868-16.229-22.4a1.48,1.48,0,0,0-1.177-1.8l-15.63-3.293a2.079,2.079,0,0,0-2.007.723l-10.069,12.518,4.1,1.756,2.338-1.445.9,2.83c22.244,9.528,31.957,13.408,36.954,13.906C249.114,345.8,248.46,344.7,248.46,344.7Z" transform="translate(-54.461 -20.621)"/>
        <path id="Path_153" data-name="Path 153" d="M210.666,311.5c.939.049,1.463.049,1.463.049l74.968,10.9-42.676,70.8,21.369,8.134s77.273-83.316,60.011-102.314c-14.2-15.626-83.765-25.129-83.765-25.129l2.281-16.308-64.345-12.669C152.462,305.175,201.457,310.934,210.666,311.5Z" transform="translate(-87.971 -97.031)" fill="#263238"/>
        <g id="Group_97" data-name="Group 97" transform="translate(89.872 149.73)">
          <g id="Group_94" data-name="Group 94">
            <path id="Path_154" data-name="Path 154" d="M176.039,250.437l-1.364-.264,1.248-4.337,1.213.235Z" transform="translate(-174.675 -245.836)" fill="#263238"/>
            <path id="Path_155" data-name="Path 155" d="M214.054,257.806l-27.471-5.316,1.073-4.361,27.358,5.306Z" transform="translate(-162.073 -243.409)" fill="#263238"/>
            <path id="Path_156" data-name="Path 156" d="M201.9,250.906l11.614,2.253-.773,4.4-11.758-2.275Z" transform="translate(-146.838 -240.47)" fill="#263238"/>
            <path id="Path_157" data-name="Path 157" d="M177.443,246.15l18.888,3.664-1.116,4.354-18.827-3.643Z" transform="translate(-172.862 -245.503)" fill="#263238"/>
          </g>
          <g id="Group_95" data-name="Group 95" opacity="0.2">
            <path id="Path_158" data-name="Path 158" d="M176.039,250.437l-1.364-.264,1.248-4.337,1.213.235Z" transform="translate(-174.675 -245.836)" fill="#fff"/>
            <path id="Path_159" data-name="Path 159" d="M214.054,257.806l-27.471-5.316,1.073-4.361,27.358,5.306Z" transform="translate(-162.073 -243.409)" fill="#fff"/>
            <path id="Path_160" data-name="Path 160" d="M201.9,250.906l11.614,2.253-.773,4.4-11.758-2.275Z" transform="translate(-146.838 -240.47)" fill="#fff"/>
            <path id="Path_161" data-name="Path 161" d="M177.443,246.15l18.888,3.664-1.116,4.354-18.827-3.643Z" transform="translate(-172.862 -245.503)" fill="#fff"/>
          </g>
          <g id="Group_96" data-name="Group 96" transform="translate(35.25 6.902)">
            <path id="Path_162" data-name="Path 162" d="M200.907,251.509l-.617,2.657a.815.815,0,0,1-.936.617l-6.879-1.22a.816.816,0,0,1-.648-1l.689-2.754a.815.815,0,0,1,.947-.6l6.807,1.319A.814.814,0,0,1,200.907,251.509Z" transform="translate(-191.801 -249.189)" fill="none" stroke="#fff" stroke-miterlimit="10" stroke-width="0.589"/>
            <line id="Line_23" data-name="Line 23" x1="2.1" y1="0.369" transform="translate(1.309 2.168)" fill="none" stroke="#fff" stroke-linecap="round" stroke-linejoin="round" stroke-width="0.589"/>
          </g>
        </g>
        <g id="Group_98" data-name="Group 98" transform="translate(112.737 37.173)">
          <path id="Path_163" data-name="Path 163" d="M187.194,191.15l16.332,13.539c-1.6,6.626,1.175,12.739,4.394,13.869,0,0,2.388,5.683-2.206,6.64-9.31,1.941-19.93-7.076-19.93-7.076C190.709,212.83,188.929,199.609,187.194,191.15Z" transform="translate(-185.784 -191.15)" fill="#ebb376"/>
          <path id="Path_164" data-name="Path 164" d="M189.848,193.834l9.668,8.007a27.267,27.267,0,0,0-.778,4.7c-3.627-.457-8.634-4.339-9.048-8.118A12.669,12.669,0,0,1,189.848,193.834Z" transform="translate(-181.779 -188.31)" opacity="0.2"/>
        </g>
        <g id="Group_99" data-name="Group 99" transform="translate(93.575)">
          <path id="Path_165" data-name="Path 165" d="M195.485,178.49c3.952,2.464,9.307,9.894,2.665,11.679S188.693,174.256,195.485,178.49Z" transform="translate(-160.493 -168.07)" fill="#263238"/>
          <path id="Path_166" data-name="Path 166" d="M185.245,203.542c6.91,9.114,10.493,14.807,18.52,16.437,12.076,2.455,20.854-9.841,16.793-20.869-3.655-9.925-14.342-23.164-26.121-20.65A15.78,15.78,0,0,0,185.245,203.542Z" transform="translate(-170.655 -167.735)" fill="#ffb573"/>
          <path id="Path_167" data-name="Path 167" d="M192.567,190.646l-8.3-9.688s-10.966,8.068-5.987,12.953c-3.283,7.727,9.76,18.508,21.165,16.291,1.319-6.965-8.836-18.866-8.836-18.866C191.233,191.148,191.894,190.908,192.567,190.646Z" transform="translate(-175.937 -164.763)" fill="#263238"/>
          <path id="Path_168" data-name="Path 168" d="M185.414,200.072a10.725,10.725,0,0,0,7.957,2.266c3.773-.48,4.211-4.24,1.949-7.056-2.036-2.534-6.453-5.337-9.657-3.437C182.508,193.716,182.683,197.853,185.414,200.072Z" transform="translate(-169.218 -153.902)" fill="#ffb573"/>
          <path id="Path_169" data-name="Path 169" d="M191.6,188.145c.517.774,1.342,1.124,1.846.782s.494-1.249-.023-2.023-1.342-1.124-1.844-.782S191.081,187.369,191.6,188.145Z" transform="translate(-160.887 -159.437)" fill="#263238"/>
          <path id="Path_170" data-name="Path 170" d="M195.827,185.268c.515.774,1.34,1.124,1.844.782s.494-1.247-.021-2.023-1.342-1.124-1.846-.782S195.311,184.494,195.827,185.268Z" transform="translate(-156.41 -162.482)" fill="#263238"/>
          <path id="Path_171" data-name="Path 171" d="M194.4,185.262s4.658,3.079,7.994,3.843c-.539,2.124-3.246,3.112-3.246,3.112Z" transform="translate(-157.5 -160.208)" fill="#ed893e"/>
          <path id="Path_172" data-name="Path 172" d="M193.815,191.691a9.116,9.116,0,0,0-1.027.65.276.276,0,0,0-.062.383.271.271,0,0,0,.379.062,7.292,7.292,0,0,1,6.537-1.2.275.275,0,0,0,.2-.515A7.584,7.584,0,0,0,193.815,191.691Z" transform="translate(-159.33 -154.434)" fill="#263238"/>
          <path id="Path_173" data-name="Path 173" d="M188.764,187.58a.551.551,0,0,0,.492-.253,4.416,4.416,0,0,1,3.357-2.114.552.552,0,0,0,.545-.554.545.545,0,0,0-.55-.539,5.489,5.489,0,0,0-4.271,2.622.543.543,0,0,0,.163.755A.529.529,0,0,0,188.764,187.58Z" transform="translate(-164.012 -161.416)" fill="#263238"/>
          <path id="Path_174" data-name="Path 174" d="M197.936,181.116a.553.553,0,0,0-.669-.7,5.391,5.391,0,0,0-3.707,3.306.555.555,0,0,0,.36.69.541.541,0,0,0,.681-.352,4.2,4.2,0,0,1,2.964-2.587A.537.537,0,0,0,197.936,181.116Z" transform="translate(-158.418 -165.357)" fill="#263238"/>
          <path id="Path_175" data-name="Path 175" d="M191.145,199.663s21.731-9.13,23.063-19.553-7.85-6.154-7.85-6.154,4.25-.288,3.835,2.805c0,0-7.34-5.006-14.334-.7a6.465,6.465,0,0,1,4.989,2.361,38.829,38.829,0,0,0-14.095,6.823C179.3,190.765,165.917,210.543,191.145,199.663Z" transform="translate(-176.474 -173.089)" fill="#263238"/>
        </g>
        <path id="Path_176" data-name="Path 176" d="M224.075,261.986l-35.421-4.067s14.023-2.3,36.2-1.49Z" transform="translate(-70.01 -85.079)" opacity="0.3"/>
        <path id="Path_177" data-name="Path 177" d="M177.372,236.144c-.123-1.441-.226-2.882-.35-4.322-.082-1.132-.185-2.285-.288-3.417-.309-2.882-.638-5.763-1.05-8.6-.1-.782-.226-1.564-.35-2.326a22.087,22.087,0,0,1,3.108-2.079A48.951,48.951,0,0,1,177.372,236.144Z" transform="translate(-84.106 -128.317)" opacity="0.1"/>
        <g id="Group_100" data-name="Group 100" transform="translate(28.083 158.394)">
          <path id="Path_178" data-name="Path 178" d="M150.811,250.045l-6.156,14.445,13.327,3.3s5.722-9.495.136-16.732Z" transform="translate(-144.655 -250.045)" fill="#ebb376"/>
          <path id="Path_179" data-name="Path 179" d="M145.614,268.2l10.521.077,1.847-7.918-13.326-3.294Z" transform="translate(-144.655 -242.618)" fill="#ebb376"/>
        </g>
        <path id="Path_180" data-name="Path 180" d="M208.128,218.057c.916,9.058-2.176,12.741-2.176,12.741s-8.774,5.512-12.58,8.336c-3.236,2.439-6.407,4.915-9.412,7.4-1.486,1.247-2.923,2.509-4.236,3.758a34.182,34.182,0,0,0-3.289,3.518,16.065,16.065,0,0,0-1.058,1.618c-.375.605-.766,1.511-1.171,2.246-.8,1.659-1.6,3.417-2.361,5.261-1.521,3.676-2.962,7.511-4.328,11.4-2.853,7.737-5.506,15.715-8.239,23.559L147.121,295c1.235-8.54,2.9-16.863,4.833-25.294,1.017-4.193,2.143-8.392,3.433-12.66.642-2.132,1.375-4.3,2.2-6.531.492-1.171.887-2.227,1.5-3.48a33.786,33.786,0,0,1,2.141-3.828,50.186,50.186,0,0,1,4.888-6.109c1.626-1.77,3.26-3.4,4.9-4.977,3.273-3.143,6.632-6.006,10.034-8.762,6.813-5.539,13.654-10.6,20.984-15.486C202.037,207.873,207.3,209.859,208.128,218.057Z" transform="translate(-113.962 -136.279)" fill="#407bff"/>
        <path id="Path_181" data-name="Path 181" d="M208.128,218.057c.916,9.058-2.176,12.741-2.176,12.741s-8.774,5.512-12.58,8.336c-3.236,2.439-6.407,4.915-9.412,7.4-1.486,1.247-2.923,2.509-4.236,3.758a34.182,34.182,0,0,0-3.289,3.518,16.065,16.065,0,0,0-1.058,1.618c-.375.605-.766,1.511-1.171,2.246-.8,1.659-1.6,3.417-2.361,5.261-1.521,3.676-2.962,7.511-4.328,11.4-2.853,7.737-5.506,15.715-8.239,23.559L147.121,295c1.235-8.54,2.9-16.863,4.833-25.294,1.017-4.193,2.143-8.392,3.433-12.66.642-2.132,1.375-4.3,2.2-6.531.492-1.171.887-2.227,1.5-3.48a33.786,33.786,0,0,1,2.141-3.828,50.186,50.186,0,0,1,4.888-6.109c1.626-1.77,3.26-3.4,4.9-4.977,3.273-3.143,6.632-6.006,10.034-8.762,6.813-5.539,13.654-10.6,20.984-15.486C202.037,207.873,207.3,209.859,208.128,218.057Z" transform="translate(-113.962 -136.279)" fill="#fff" opacity="0.7"/>
        <g id="Group_102" data-name="Group 102" transform="translate(77.845 58.038)">
          <path id="Path_182" data-name="Path 182" d="M212.788,208.315l4.578,7.19s-15.958,19.339-46.5,25.72l-2.038,6.216,6.494,1.7s32.982-8.536,46.142-33.274l6.8-7.574-8.015-2.688Z" transform="translate(-168.832 -196.719)" fill="#407bff"/>
          <g id="Group_101" data-name="Group 101" transform="translate(29.168)">
            <path id="Path_183" data-name="Path 183" d="M183,208.552l7.436-6.505,14.818,8.124,1.713-8.884,7.823,4.5,2.239,11.492-10.916-4.724-9.771,8.711Z" transform="translate(-183.003 -201.287)" fill="#407bff"/>
            <path id="Path_184" data-name="Path 184" d="M183,208.552l7.436-6.505,14.818,8.124,1.713-8.884,7.823,4.5,2.239,11.492-10.916-4.724-9.771,8.711Z" transform="translate(-183.003 -201.287)" fill="#fff" opacity="0.6"/>
          </g>
        </g>
      </g>
    </g>
    <g id="Character_2" data-name="Character 2" transform="translate(424.162 110.122)">
      <g id="Group_109" data-name="Group 109">
        <path id="Path_185" data-name="Path 185" d="M308.145,142.272s-13.842,17.166-27.887,15.742-21.225,4.275-21.225,4.275l-1.371,6.852,7.533-1.017s0-5.428,14.655-4.816,25.65-11.991,29.925-17.7Z" transform="translate(-219.125 -76.1)" fill="#407bff"/>
        <g id="Group_104" data-name="Group 104" transform="translate(116.979 23.225)">
          <path id="Path_186" data-name="Path 186" d="M367.236,135.817l-.292-1.352a10.517,10.517,0,0,0-.574-1.939,13.182,13.182,0,0,0-3.355-4.882,18.528,18.528,0,0,0-6.294-3.7,39.754,39.754,0,0,0-9.1-1.982c-2.75-.311-5.356-.447-7.922-.517-5.125-.146-10.061.109-14.957.414a275.434,275.434,0,0,0-28.964,3.485l3.532,20.278c8.875-1.414,18.129-2.709,27.085-3.637,4.493-.457,8.968-.737,13.266-.875,2.141-.056,4.248-.047,6.189.072a34.637,34.637,0,0,1,3.728.412,18.765,18.765,0,0,1,.066,2.27,50.138,50.138,0,0,1-2.2,11.677A160.083,160.083,0,0,1,337.3,180.212l9.768,6.512A119.863,119.863,0,0,0,362.7,161.206a59.962,59.962,0,0,0,4.643-15.661A30.854,30.854,0,0,0,367.236,135.817Z" transform="translate(-295.773 -121.406)" fill="#ee7843"/>
          <path id="Path_187" data-name="Path 187" d="M367.34,145.551a55.687,55.687,0,0,1-3.6,13.152c-.329.844-.679,1.688-1.029,2.511a120.206,120.206,0,0,1-15.643,25.5l-9.756-6.5a162.191,162.191,0,0,0,10.127-24.679,60.158,60.158,0,0,0,1.873-8.295,28.722,28.722,0,0,0,.329-3.376,20.071,20.071,0,0,0-.062-2.264,33.164,33.164,0,0,0-3.725-.412c-1.955-.124-4.055-.124-6.2-.082-.165,0-.309.021-.473.021-4.158.144-8.459.432-12.8.864-8.686.906-17.619,2.141-26.243,3.52-.288.041-.556.082-.823.124l-3.54-20.294a279.968,279.968,0,0,1,28.96-3.478c4.9-.309,9.839-.556,14.964-.412,2.573.062,5.166.206,7.924.515a40.738,40.738,0,0,1,9.1,1.976,18.583,18.583,0,0,1,6.3,3.7,13.165,13.165,0,0,1,3.355,4.878,11.484,11.484,0,0,1,.576,1.935l.288,1.358A31.021,31.021,0,0,1,367.34,145.551Z" transform="translate(-295.772 -121.406)" fill="#ee7843"/>
          <path id="Path_188" data-name="Path 188" d="M336.939,136.733c-4.158.144-8.459.432-12.8.864-8.686.906-17.619,2.141-26.243,3.52,3.149-7.739,6.381-15.56,6.381-15.56S318.682,126.936,336.939,136.733Z" transform="translate(-293.528 -117.014)" fill="#6e2f13" opacity="0.1"/>
          <path id="Path_189" data-name="Path 189" d="M342.382,145.421c-.329.844-.679,1.688-1.029,2.511a120.207,120.207,0,0,1-15.643,25.5l-9.756-6.5a162.183,162.183,0,0,0,10.127-24.679,60.145,60.145,0,0,0,1.873-8.295A115.94,115.94,0,0,1,342.382,145.421Z" transform="translate(-274.416 -108.125)" fill="#ee7843" opacity="0.1"/>
        </g>
        <g id="Group_105" data-name="Group 105" transform="translate(38.537)">
          <path id="Path_190" data-name="Path 190" d="M266,130.793c.562.712.64,1.587.175,1.953s-1.3.089-1.859-.624-.642-1.585-.177-1.953S265.434,130.08,266,130.793Z" transform="translate(-251.133 -89.079)" fill="#263238"/>
          <path id="Path_191" data-name="Path 191" d="M265.226,131.135s1.624,5.382,1.408,8.77c2.188.181,3.9-2.046,3.9-2.046Z" transform="translate(-249.657 -87.886)" fill="#de5753"/>
          <path id="Path_192" data-name="Path 192" d="M267.087,127.919a.532.532,0,0,0-.43-.875,5.282,5.282,0,0,0-4.271,2.322.533.533,0,1,0,.916.543h0a4.233,4.233,0,0,1,3.4-1.8A.528.528,0,0,0,267.087,127.919Z" transform="translate(-252.741 -92.215)" fill="#263238"/>
          <path id="Path_193" data-name="Path 193" d="M274.842,125.039c6.8,4.9,19.821,12.656,27.212,9.719,0,0,6.642,5.526.261,19.416-7.019,15.27-10.936,3.814-10.936,3.814,1.84-9.25-4.442-11.876-10.917-13.093Z" transform="translate(-239.481 -94.337)" fill="#e4897b"/>
          <path id="Path_194" data-name="Path 194" d="M290.087,123.982c6.366,9.163,10.559,14.2,9.688,22.176-1.309,11.993-15.258,16.511-24.236,9.435-8.079-6.37-17.135-20.284-11.327-30.52A15.218,15.218,0,0,1,290.087,123.982Z" transform="translate(-252.681 -102.526)" fill="#e4897b"/>
          <path id="Path_195" data-name="Path 195" d="M304.593,146.7c-.957,5.193-18.436,12.3-26.366,1.1,0,0-9.956-.078-15.941-6.08s-4.7-12.508.661-16.048c4.73-3.12,16.956-26.107,31.2-9.7C309.6,115.343,305.785,140.221,304.593,146.7Z" transform="translate(-256.957 -110.122)" fill="#263238"/>
          <path id="Path_196" data-name="Path 196" d="M275.766,116.483s-9.18-.443-14.474,3.765-3.8,17.112-1.764,19.549a6.017,6.017,0,0,0,4.207,2.435s-3.12-1.618-3.12-4c0,0,1.356,3.184,7.6,4,0,0-1.78-1.422-1.5-3.221,0,0,3.382,4.378,11.195,0S275.766,116.483,275.766,116.483Z" transform="translate(-257.662 -103.406)" fill="#263238"/>
          <path id="Path_197" data-name="Path 197" d="M273.909,128.613a12.6,12.6,0,0,1,2.194,7.8c-.224,3.639-3.273,3.925-5.666,1.63-2.155-2.069-4.635-6.453-3.227-9.489C268.6,125.562,271.98,125.883,273.909,128.613Z" transform="translate(-247.995 -92.86)" fill="#e4897b"/>
        </g>
        <g id="Group_106" data-name="Group 106" transform="translate(82.656 33.812)">
          <path id="Path_198" data-name="Path 198" d="M279.167,158.91s-1.71-20.723,11.821-32.36l16.112,1.478S297.815,150.685,279.167,158.91Z" transform="translate(-279.097 -126.55)" fill="#407bff"/>
          <path id="Path_199" data-name="Path 199" d="M279.167,158.91s-1.71-20.723,11.821-32.36l16.112,1.478S297.815,150.685,279.167,158.91Z" transform="translate(-279.097 -126.55)" fill="#af4531"/>
        </g>
        <path id="Path_200" data-name="Path 200" d="M328.079,209.42s-24.368-23.925-51.3-40.673c0,0,17.946-42.124,40.663-45.883,0,0,58.73,17.736,75.769,65.8Z" transform="translate(-198.899 -96.639)" fill="#407bff"/>
        <path id="Path_201" data-name="Path 201" d="M314.462,248.113l-10.514,4.462-11.38-23.9,10.514-4.462Z" transform="translate(-182.186 10.611)" fill="#e4897b"/>
        <path id="Path_202" data-name="Path 202" d="M402.761,154.832l-6.2,65.794c-3.408,2.523-8.84,4.485-15.4,6.014-12.837,2.989-29.966,4.347-44.759,5.139-16.614.906-30.258,1.079-31.491,2.032-2.888,2.25,33.694,77.8,33.694,77.8l-17.46,2.176s-45.889-62.933-51.827-84.8c-2.188-8.07-4.392-18.181,10.429-27.626,13.045-8.315,61.622-14.556,61.622-14.556l-3.738-11.222Z" transform="translate(-208.453 -62.808)" fill="#263238"/>
        <path id="Path_203" data-name="Path 203" d="M345.977,213.831c-12.837,2.989-29.966,4.347-44.759,5.139-2-24.279,10.215-47.577,10.215-47.577l17.374-4.458Z" transform="translate(-173.266 -49.999)" opacity="0.2"/>
        <path id="Path_204" data-name="Path 204" d="M390.914,231.115l1.86,11.269-25.912,5.431L365,236.545Z" transform="translate(-105.531 17.919)" fill="#e4897b"/>
        <path id="Path_205" data-name="Path 205" d="M379.006,236.835a.27.27,0,0,0-.3-.066.273.273,0,0,0-.169.257c.006.2.163,4.788,1.6,6.136a1.349,1.349,0,0,0,.988.4,1.023,1.023,0,0,0,1.019-.6c.313-.749-.257-2.06-1.027-3.31A20.043,20.043,0,0,0,379.006,236.835Zm.119.957c1.369,1.651,2.869,4.119,2.519,4.958-.047.109-.152.255-.537.27a.823.823,0,0,1-.6-.253,2.08,2.08,0,0,1-.327-.414A12.221,12.221,0,0,1,379.126,237.792Z" transform="translate(-91.208 23.881)" fill="#407bff"/>
        <path id="Path_206" data-name="Path 206" d="M380.316,236.77a.272.272,0,0,0-.268.033c-.1.08-2.562,1.955-2.816,3.818a1.968,1.968,0,0,0,.391,1.521c.455.593.889.578,1.173.461,1.208-.5,1.879-4.119,1.684-5.619a.282.282,0,0,0-.165-.214Zm-2.548,3.925c.167-1.223,1.521-2.534,2.209-3.131.018,1.64-.661,4.238-1.387,4.538-.058.025-.239.1-.535-.29-.033-.043-.064-.088-.093-.134A1.447,1.447,0,0,1,377.767,240.695Z" transform="translate(-92.612 23.881)" fill="#407bff"/>
        <path id="Path_207" data-name="Path 207" d="M381.251,246.783l-6.541-10.621a1,1,0,0,1,.154-1.237l7.461-7.245a1.66,1.66,0,0,1,2.591.333c2.3,3.87,5.481,9.544,8.447,14.36,3.466,5.629,6.77,10.3,10.835,16.906,2.46,3.993-.893,7.587-2.289,6.14-6.35-6.582-10.355-12.685-18.458-16.762A5.312,5.312,0,0,1,381.251,246.783Z" transform="translate(-95.414 13.78)" fill="#263238"/>
        <path id="Path_208" data-name="Path 208" d="M366.26,154.832s20.922,53.786-14.375,74.657c0,0-.449,62.149,8.474,69.433,10.857,8.863,90.376,13.373,90.376,13.373l-.694,19.747s-85.128,6.969-110.9-2.278c-30.178-10.829-36.9-153.24-36.9-153.24Z" transform="translate(-171.952 -62.808)" fill="#263238"/>
        <path id="Path_209" data-name="Path 209" d="M321.591,172.851l12.708-3.845s1.745,10.936,1.723,16.787l-5.895,5.059-5.576-1.774S323.03,177.389,321.591,172.851Z" transform="translate(-151.472 -47.808)" opacity="0.2"/>
        <g id="Group_108" data-name="Group 108" transform="translate(128.659 93.041)">
          <path id="Path_210" data-name="Path 210" d="M306.158,164.938l1.645,5.228-4.7,1.458-1.656-5.182Z" transform="translate(-301.448 -145.155)" fill="#263238"/>
          <path id="Path_211" data-name="Path 211" d="M324.252,161.558l1.769,5.422-19.46,6.033-1.72-5.235Z" transform="translate(-297.856 -148.731)" fill="#263238"/>
          <path id="Path_212" data-name="Path 212" d="M337.2,157.787l1.765,5.674L317.216,170.2l-1.727-5.456Z" transform="translate(-286.588 -152.723)" fill="#263238"/>
          <path id="Path_213" data-name="Path 213" d="M342.457,161.118l-13.4,4.154h-.015l-1.8-5.685,13.3-4.262Z" transform="translate(-274.143 -155.326)" fill="#263238"/>
          <g id="Group_107" data-name="Group 107" opacity="0.2">
            <path id="Path_214" data-name="Path 214" d="M306.158,164.938l1.645,5.228-4.7,1.458-1.656-5.182Z" transform="translate(-301.448 -145.155)" fill="#fff"/>
            <path id="Path_215" data-name="Path 215" d="M324.252,161.558l1.769,5.422-19.46,6.033-1.72-5.235Z" transform="translate(-297.856 -148.731)" fill="#fff"/>
            <path id="Path_216" data-name="Path 216" d="M337.2,157.787l1.765,5.674L317.216,170.2l-1.727-5.456Z" transform="translate(-286.588 -152.723)" fill="#fff"/>
            <path id="Path_217" data-name="Path 217" d="M342.457,161.118l-13.4,4.154h-.015l-1.8-5.685,13.3-4.262Z" transform="translate(-274.143 -155.326)" fill="#fff"/>
          </g>
        </g>
        <path id="Path_218" data-name="Path 218" d="M300.156,237.555a.27.27,0,0,0,.07-.5c-.171-.095-4.215-2.274-6.1-1.713a1.346,1.346,0,0,0-.842.655,1.025,1.025,0,0,0,0,1.182c.49.648,1.91.815,3.375.782A20.269,20.269,0,0,0,300.156,237.555Zm-.887-.381c-2.116.35-5,.4-5.551-.325-.072-.093-.146-.257.039-.6a.818.818,0,0,1,.521-.391,2.013,2.013,0,0,1,.521-.072A12.2,12.2,0,0,1,299.268,237.174Z" transform="translate(-181.622 22.293)" fill="#407bff"/>
        <path id="Path_219" data-name="Path 219" d="M298.78,238.941a.268.268,0,0,0,.1-.247c-.016-.13-.4-3.2-1.877-4.357a1.969,1.969,0,0,0-1.511-.428c-.741.093-.947.475-.99.78-.177,1.295,2.612,3.7,4.005,4.285a.257.257,0,0,0,.111.023A.283.283,0,0,0,298.78,238.941Zm-2.106-4.178c.972.759,1.422,2.589,1.589,3.485-1.424-.811-3.326-2.709-3.219-3.487.008-.062.035-.255.521-.317a1.446,1.446,0,0,1,.163-.01A1.43,1.43,0,0,1,296.674,234.763Z" transform="translate(-180.142 20.858)" fill="#407bff"/>
        <path id="Path_220" data-name="Path 220" d="M311.141,235.736l12.471-.3a1,1,0,0,1,.99.757l2.5,10.1a1.663,1.663,0,0,1-1.6,2.071c-4.5.031-11.005-.08-16.659.054-6.611.159-12.312.652-20.064.836-4.689.111-6.1-4.6-4.15-5.072,8.888-2.165,16.176-2.548,23.781-7.49A5.286,5.286,0,0,1,311.141,235.736Z" transform="translate(-191.486 22.496)" fill="#263238"/>
        <path id="Path_221" data-name="Path 221" d="M393.21,188.67l-65.123,20.747s-11.485-11.259-27.4-23.752c-3.026-2.367-6.2-4.775-9.489-7.163-4.631-3.376-9.489-6.689-14.428-9.756,0,0,17.948-42.133,40.671-45.879C317.445,122.867,376.167,140.589,393.21,188.67Z" transform="translate(-198.9 -96.635)" fill="#ee7843"/>
        <path id="Path_222" data-name="Path 222" d="M293.273,159.039c-3.026-2.367-6.2-4.775-9.489-7.163l1.276-3.849A33.673,33.673,0,0,1,293.273,159.039Z" transform="translate(-191.481 -70.01)" opacity="0.1"/>
        <path id="Path_223" data-name="Path 223" d="M246.633,174.329l-4.489,1.07a2.851,2.851,0,0,0-2.153,2.318l-1.015,6.251a2.853,2.853,0,0,0,1.758,3.106l3.283,1.309s9.472,6.833,17.479,2.421l-3.46-9.161-6.772-6.127A5.133,5.133,0,0,0,246.633,174.329Z" transform="translate(-238.939 -42.323)" fill="#e4897b"/>
        <path id="Path_224" data-name="Path 224" d="M319.021,147.363c5.757,3.454,6.259,10.575,6.259,10.575s-4.522,12.269-7.146,18.374c-1.782,4.143-3.633,8.3-5.786,12.436a75.215,75.215,0,0,1-8,12.774l-.71.854-.844.906a22.645,22.645,0,0,1-1.995,1.887,14.026,14.026,0,0,1-1.361,1.025,12.291,12.291,0,0,1-1.309.827l-1.739.9c-2.268,1.142-4.39,2.034-6.521,2.91-4.23,1.733-8.416,3.24-12.615,4.683-8.422,2.818-16.8,5.395-25.4,7.56l-4.084-11.006c7.716-3.954,15.583-7.7,23.258-11.557,3.845-1.906,7.673-3.824,11.349-5.759,1.811-.978,3.616-1.978,5.174-2.925l1.105-.7c.3-.171.07-.091.049-.078-.045.006-.14.126-.074.025s.132-.148.321-.418l.247-.309.3-.434a67.48,67.48,0,0,0,5.181-9.754c1.632-3.713,3.264-7.548,4.767-11.475,2.991-7.828,5.86-15.986,8.536-23.892C307.98,144.8,312.914,143.7,319.021,147.363Z" transform="translate(-229.593 -73.592)" fill="#407bff"/>
        <path id="Path_225" data-name="Path 225" d="M319.021,147.363c5.757,3.454,6.259,10.575,6.259,10.575s-4.522,12.269-7.146,18.374c-1.782,4.143-3.633,8.3-5.786,12.436a75.215,75.215,0,0,1-8,12.774l-.71.854-.844.906a22.645,22.645,0,0,1-1.995,1.887,14.026,14.026,0,0,1-1.361,1.025,12.291,12.291,0,0,1-1.309.827l-1.739.9c-2.268,1.142-4.39,2.034-6.521,2.91-4.23,1.733-8.416,3.24-12.615,4.683-8.422,2.818-16.8,5.395-25.4,7.56l-4.084-11.006c7.716-3.954,15.583-7.7,23.258-11.557,3.845-1.906,7.673-3.824,11.349-5.759,1.811-.978,3.616-1.978,5.174-2.925l1.105-.7c.3-.171.07-.091.049-.078-.045.006-.14.126-.074.025s.132-.148.321-.418l.247-.309.3-.434a67.48,67.48,0,0,0,5.181-9.754c1.632-3.713,3.264-7.548,4.767-11.475,2.991-7.828,5.86-15.986,8.536-23.892C307.98,144.8,312.914,143.7,319.021,147.363Z" transform="translate(-229.593 -73.592)" fill="#ee7843"/>
      </g>
    </g>
    <g id="Arrow_2" data-name="Arrow 2" transform="translate(117.197 378.968)">
      <g id="Group_111" data-name="Group 111">
        <g id="Group_110" data-name="Group 110" transform="translate(19.974)">
          <path id="Path_226" data-name="Path 226" d="M99.505,591.829H447.113l183.96-148.6,8.067,9.986h45.309L730.608,240.74l-45.328.09.02-.09-217.434.432,25.958,32.133Z" transform="translate(-99.505 -240.74)" fill="#ce3b20"/>
          <path id="Path_227" data-name="Path 227" d="M99.505,591.829H401.8L613.182,421.082l25.958,32.133L685.3,240.74l-217.434.432,25.958,32.133Z" transform="translate(-99.505 -240.74)" fill="#ee7843"/>
        </g>
        <path id="Path_228" data-name="Path 228" d="M102.7,430.5H352.283a29.627,29.627,0,0,1-.187-3.215,29.015,29.015,0,0,1,29.015-29.015c.356,0,.7.039,1.056.051a25.657,25.657,0,0,1,49.707,8.951l0,.058a24.475,24.475,0,0,1,23.3,23.17h1.167a12.9,12.9,0,0,1,0,25.8H102.7a12.9,12.9,0,0,1,0-25.8Z" transform="translate(-89.801 -91.673)" fill="#407bff"/>
        <path id="Path_229" data-name="Path 229" d="M102.7,430.5H352.283a29.627,29.627,0,0,1-.187-3.215,29.015,29.015,0,0,1,29.015-29.015c.356,0,.7.039,1.056.051a25.657,25.657,0,0,1,49.707,8.951l0,.058a24.475,24.475,0,0,1,23.3,23.17h1.167a12.9,12.9,0,0,1,0,25.8H102.7a12.9,12.9,0,0,1,0-25.8Z" transform="translate(-89.801 -91.673)" fill="#fff" opacity="0.7"/>
      </g>
    </g>
  </g>
</svg>
